HIERARCHY
ROOT Hips
{
	OFFSET 0.00000 0.00000 0.00000
	CHANNELS 6 Xposition Yposition Zposition Zrotation Yrotation Xrotation 
	JOINT LHipJoint
	{
		OFFSET 0 0 0
		CHANNELS 3 Zrotation Yrotation Xrotation
		JOINT LeftHip
		{
			OFFSET 1.57338 -1.94743 0.52196
			CHANNELS 3 Zrotation Yrotation Xrotation
			JOINT LeftKnee
			{
				OFFSET 2.60333 -7.15259 0.00000
				CHANNELS 3 Zrotation Yrotation Xrotation
				JOINT LeftAnkle
				{
					OFFSET 2.77855 -7.63400 0.00000
					CHANNELS 3 Zrotation Yrotation Xrotation
					JOINT LeftToe
					{
						OFFSET 0.19847 -0.54529 2.28466
						CHANNELS 3 Zrotation Yrotation Xrotation
						End Site
						{
							OFFSET 0.00000 -0.00000 1.17993
						}
					}
				}
			}
		}
	}
	JOINT RHipJoint
	{
		OFFSET 0 0 0
		CHANNELS 3 Zrotation Yrotation Xrotation
		JOINT RightHip
		{
			OFFSET -1.61527 -1.94743 0.52196
			CHANNELS 3 Zrotation Yrotation Xrotation
			JOINT RightKnee
			{
				OFFSET -2.53829 -6.97390 0.00000
				CHANNELS 3 Zrotation Yrotation Xrotation
				JOINT RightAnkle
				{
					OFFSET -2.80762 -7.71387 0.00000
					CHANNELS 3 Zrotation Yrotation Xrotation
					JOINT RightToe
					{
						OFFSET -0.30536 -0.83898 2.28801
						CHANNELS 3 Zrotation Yrotation Xrotation
						End Site
						{
							OFFSET -0.00000 -0.00000 1.21323
						}
					}
				}
			}
		}
	}
	JOINT lowerback
	{
		OFFSET 0 0 0
		CHANNELS 3 Zrotation Yrotation Xrotation
		JOINT Chest
		{
			OFFSET -0.04381 1.99497 -0.19778
			CHANNELS 3 Zrotation Yrotation Xrotation
			JOINT Chest2
			{
				OFFSET -0.01959 2.01295 -0.04372
				CHANNELS 3 Zrotation Yrotation Xrotation
				JOINT lowerneck
				{
					OFFSET 0 0 0
					CHANNELS 3 Zrotation Yrotation Xrotation
					JOINT Neck
					{
						OFFSET -0.05459 1.76913 0.09708
						CHANNELS 3 Zrotation Yrotation Xrotation
						JOINT Head
						{
							OFFSET 0.09461 1.77368 -0.11172
							CHANNELS 3 Zrotation Yrotation Xrotation
							End Site
							{
								OFFSET 0.03812 1.78157 -0.04834
							}
						}
					}
				}
				JOINT LeftCollar
				{
					OFFSET 0 0 0
					CHANNELS 3 Zrotation Yrotation Xrotation
					JOINT LeftShoulder
					{
						OFFSET 3.50922 1.24034 -0.28866
CHANNELS 3 Zrotation Xrotation Yrotation
						JOINT LeftElbow
						{
OFFSET 0 -5.401880 0.000000
CHANNELS 3 Zrotation Xrotation Yrotation
							JOINT LeftWrist
							{
OFFSET 0 -3.685590 0.000000
CHANNELS 3 Zrotation Xrotation Yrotation
								JOINT lhand
								{
									OFFSET 0 0 0
CHANNELS 3 Zrotation Xrotation Yrotation
									JOINT LFingers
									{
OFFSET 0 -0.617530 0.000000
CHANNELS 3 Zrotation Xrotation Yrotation
										End Site
										{
OFFSET 0 -0.497870 0.000000
										}
									}
								}
								JOINT LThumb
								{
OFFSET 0 0.000000 0.000000
CHANNELS 3 Zrotation Xrotation Yrotation
									End Site
									{
OFFSET 0 -0.505470 0.505470
									}
								}
							}
						}
					}
				}
				JOINT RightCollar
				{
					OFFSET 0 0 0
					CHANNELS 3 Zrotation Yrotation Xrotation
					JOINT RightShoulder
					{
						OFFSET -2.95373 1.39649 -0.27346
CHANNELS 3 Zrotation Xrotation Yrotation
						JOINT RightElbow
						{
OFFSET 0 -6.106700 -0.000000
CHANNELS 3 Zrotation Xrotation Yrotation
							JOINT RightWrist
							{
OFFSET 0 -3.630520 0.000000
CHANNELS 3 Zrotation Xrotation Yrotation
								JOINT rhand
								{
									OFFSET 0 0 0
CHANNELS 3 Zrotation Xrotation Yrotation
									JOINT RFingers
									{
OFFSET 0 -0.583850 0.000000
CHANNELS 3 Zrotation Xrotation Yrotation
										End Site
										{
OFFSET 0 -0.470710 0.000000
										}
									}
								}
								JOINT RThumb
								{
OFFSET 0 0.000000 0.000000
CHANNELS 3 Zrotation Xrotation Yrotation
									End Site
									{
OFFSET 0 -0.477900 0.477900
									}
								}
							}
						}
					}
				}
			}
		}
	}
}
MOTION
Frames: 7
Frame Time: 0.008333333333333333
1.580700 18.655200 1.744700 0.958400 -35.242000 2.136400 0.000000 0.000000 0.000000 -18.396700 -1.289500 0.844300 1.537100 7.826800 22.189100 1.287700 13.569300 -30.147500 0.215300 -2.987000 -8.242500 0.000000 0.000000 0.000000 17.837800 23.145600 -3.485200 -2.348200 -9.556600 27.552400 -1.134000 -5.588800 -22.859700 -0.009600 0.633700 -1.741300 -0.388500 -0.054300 1.816800 0.636100 -0.076400 0.368100 0.870600 -0.037600 -0.640000 -7.243700 -1.519400 -11.753700 1.996500 -1.070200 9.465700 1.711000 -0.662700 4.817000 0.000000 -0.000000 0.000000 7.703700 1.800400 -34.296800 16.055100 -25.595300 3.669700 23.275900 16.413500 -21.915500 0.000000 0.000000 0.000000 -7.125000 0.000000 0.000000 -5.815900 53.538100 1.224400 0.000000 -0.000000 0.000000 -7.155300 4.369500 29.859600 -9.943500 -16.651100 -1.458700 -17.926700 12.568000 2.966300 0.000000 0.000000 0.000000 7.125000 0.000000 -0.000000 7.048600 33.039100 2.079300
1.490868 18.642223 1.760335 1.413086 -34.659462 0.752727 0.000000 0.000000 0.000000 -18.236778 -0.697704 1.595897 1.633351 8.056535 22.885839 1.230109 12.685125 -28.983729 0.283501 -3.424285 -9.462446 0.000000 0.000000 0.000000 18.192691 22.016702 -2.644791 -2.477111 -9.796235 28.319343 -1.196820 -5.489859 -23.321335 -0.013097 0.739495 -2.032212 -0.612150 0.045554 1.944759 0.393014 0.050180 0.447314 0.744099 0.025689 -0.632897 -7.425091 -1.552073 -10.870305 2.296237 -1.191082 8.855537 1.826564 -0.702423 4.490559 0.000000 0.000000 0.000000 7.692892 1.475307 -36.019034 16.697217 -26.456857 3.951452 22.463250 15.574418 -22.830981 0.000000 0.000000 0.000000 -7.125000 0.000000 0.000000 -6.969894 54.337429 1.605464 0.000000 0.000000 0.000000 -7.204678 4.611607 32.087445 -9.783139 -16.399715 -1.413135 -18.204382 9.183498 1.580004 0.000000 0.000000 0.000000 7.125000 0.000000 0.000000 6.701050 31.599032 2.209635
1.371308 18.627516 1.783149 1.895188 -33.903570 -0.978284 0.000000 0.000000 0.000000 -17.952173 0.538557 2.508893 1.776081 8.383237 23.884391 1.085093 11.731803 -27.121271 0.485160 -4.466238 -12.392128 0.000000 0.000000 0.000000 18.701419 20.790762 -1.138391 -2.583723 -9.988526 28.939638 -1.291583 -5.307624 -23.978005 -0.007825 0.570267 -1.567095 -1.048555 -0.003990 1.618334 0.118151 -0.021875 0.697966 0.708935 -0.013435 -0.192154 -7.444715 -1.592790 -9.871754 2.444025 -1.340123 8.575444 1.868724 -0.768274 4.248045 0.000000 0.000000 0.000000 7.820602 0.751710 -37.734241 16.926453 -26.760654 4.054136 22.182046 14.342717 -22.990656 0.000000 0.000000 0.000000 -7.125000 0.000000 0.000000 -7.319479 54.448240 1.706171 0.000000 0.000000 0.000000 -7.761808 3.988660 34.955641 -9.589264 -16.094578 -1.358870 -13.074166 7.999949 -0.584917 0.000000 0.000000 0.000000 7.125000 0.000000 0.000000 10.527478 29.302479 4.091324
1.233872 18.604524 1.801102 1.215954 -33.839340 -2.012081 0.000000 0.000000 0.000000 -16.475595 1.703211 2.898436 2.043188 8.955341 25.655854 1.003728 10.885965 -25.770394 0.736929 -5.484137 -15.294624 0.000000 0.000000 0.000000 20.304353 20.039936 0.456749 -2.647440 -10.101119 29.304770 -1.357823 -5.056184 -24.354405 -0.002245 0.308517 -0.847738 -0.797869 0.150377 1.291357 0.263846 0.190838 0.487904 0.714245 0.094331 -0.227928 -7.702349 -1.475036 -8.448439 2.527557 -1.277410 9.025962 1.946748 -0.758671 4.150628 0.000000 0.000000 0.000000 7.769403 0.372955 -39.587465 16.690176 -26.447509 3.948392 21.329872 13.721171 -23.095793 0.000000 0.000000 0.000000 -7.125000 0.000000 0.000000 -8.239106 54.390236 1.910919 0.000000 0.000000 0.000000 -8.950764 3.402527 36.369899 -9.563819 -16.054417 -1.351822 -7.276676 10.193446 -2.547560 0.000000 0.000000 0.000000 7.125000 0.000000 0.000000 14.713210 27.313611 6.525057
1.091776 18.565751 1.826420 1.841500 -33.500478 -3.762193 0.000000 0.000000 0.000000 -16.171923 2.567560 3.540236 2.298809 9.462489 27.253083 0.962416 9.737716 -24.464241 0.817351 -5.768699 -16.114740 0.000000 0.000000 0.000000 20.466438 18.758249 1.513733 -2.826160 -10.408134 30.308966 -1.459524 -4.223275 -24.682891 -0.003911 0.403424 -1.108505 -1.527006 0.182929 0.477726 0.074241 0.237815 0.292823 0.930647 0.116883 0.025298 -7.626428 -1.390469 -7.456261 2.224554 -1.230345 10.102328 1.849851 -0.777706 4.311755 0.000000 0.000000 0.000000 7.894937 -0.606450 -41.379657 16.205560 -25.798508 3.734949 17.403099 12.429845 -23.465608 0.000000 0.000000 0.000000 -7.125000 0.000000 0.000000 -12.393147 54.014238 2.777980 0.000000 0.000000 0.000000 -10.946746 1.875551 37.694190 -9.876929 -16.546807 -1.439704 -4.482545 11.426773 -9.017419 0.000000 0.000000 0.000000 7.125000 0.000000 0.000000 16.008845 21.062545 9.559492
0.940683 18.529502 1.842836 2.289419 -33.447036 -5.699319 0.000000 0.000000 0.000000 -15.634045 3.573241 4.372214 2.603694 10.023905 29.054357 0.812594 9.232944 -22.763748 1.146933 -6.799925 -19.124153 0.000000 0.000000 0.000000 21.136788 17.911102 3.004211 -3.023480 -10.732913 31.384335 -1.484289 -4.287039 -24.904109 -0.015824 0.809906 -2.225914 -1.851525 0.282084 -0.219836 -0.268377 0.382819 0.166941 0.764611 0.187735 0.283794 -7.706309 -1.157537 -6.170583 2.554059 -1.061697 11.025222 1.981858 -0.707279 4.372329 0.000000 0.000000 0.000000 8.534479 -2.088645 -42.780134 15.678409 -25.082571 3.508552 15.652570 12.886131 -23.431001 0.000000 0.000000 0.000000 -7.125000 0.000000 0.000000 -14.131985 53.654344 3.054909 0.000000 0.000000 0.000000 -13.117192 -0.581057 37.453698 -10.401321 -17.364892 -1.592679 -1.761093 11.541281 -6.036476 0.000000 0.000000 0.000000 7.125000 0.000000 0.000000 18.276688 23.939763 9.773304
0.781075 18.490612 1.856415 2.208140 -33.967853 -7.395175 0.000000 0.000000 0.000000 -14.454823 4.808099 4.840067 3.038818 10.757268 31.465841 0.667763 8.736375 -20.994983 1.383832 -7.443319 -21.035572 0.000000 0.000000 0.000000 22.371172 17.285591 4.856760 -3.134994 -10.910486 31.978511 -1.543892 -3.923310 -25.163760 -0.007192 0.543150 -1.492471 -1.769763 0.455592 -0.944709 -0.354214 0.628277 0.026326 0.637808 0.309301 0.541373 -7.776068 -0.873451 -5.213551 2.836004 -0.801018 12.316117 2.103052 -0.601132 4.593678 0.000000 0.000000 0.000000 8.751862 -3.650840 -42.805276 15.084234 -24.263320 3.260492 15.426883 14.179014 -23.950144 0.000000 0.000000 0.000000 -7.125000 0.000000 0.000000 -14.604021 54.122652 3.329336 0.000000 0.000000 0.000000 -16.049328 -3.949536 36.691297 -11.303771 -18.752306 -1.872491 -5.530974 11.838965 -2.909445 0.000000 0.000000 0.000000 7.125000 0.000000 0.000000 15.966354 26.950197 7.263182
